<svg xmlns="http://www.w3.org/2000/svg" xmlns:xlink="http://www.w3.org/1999/xlink" width="280" zoomAndPan="magnify" viewBox="0 0 210 36.000001" height="48" preserveAspectRatio="xMidYMid meet" version="1.2"><defs/><g id="56c7c902f9"><g style="fill:#1e90ff;fill-opacity:1;"><g transform="translate(4.014493, 26.077299)"><path style="stroke:none" d="M 6.40625 -12.796875 L 10.671875 -17.0625 L 6.40625 -17.0625 Z M 27.734375 8.53125 L 10.671875 -8.53125 L 6.40625 -4.265625 L 6.40625 0 L 0 0 L 0 -23.46875 L 25.59375 -23.46875 L 14.9375 -12.796875 L 27.734375 0 Z M 27.734375 8.53125 "/></g><g transform="translate(29.615541, 26.077299)"><path style="stroke:none" d="M 0 0 L 0 -10.671875 L 6.40625 -17.0625 L 6.40625 -8.53125 L 14.9375 -17.0625 L 0 -17.0625 L 0 -23.46875 L 29.859375 -23.46875 L 12.796875 -6.40625 L 23.46875 -6.40625 L 23.46875 0 Z M 0 0 "/></g><g transform="translate(55.21659, 26.077299)"><path style="stroke:none" d="M 0 6.40625 L 0 -23.46875 L 6.40625 -23.46875 L 6.40625 -8.53125 L 23.46875 -25.59375 L 23.46875 -17.0625 Z M 0 6.40625 "/></g><g transform="translate(80.817639, 26.077299)"><path style="stroke:none" d="M 17.0625 -6.40625 L 17.0625 -17.0625 L 6.40625 -17.0625 L 6.40625 -6.40625 Z M 0 0 L 0 -23.46875 L 23.46875 -23.46875 L 23.46875 0 Z M 0 0 "/></g></g><g style="fill:#ffffff;fill-opacity:1;"><g transform="translate(114.013749, 27.78334)"><path style="stroke:none" d="M 11.0625 -26.21875 C 13.914062 -26.21875 16.390625 -25.6875 18.484375 -24.625 C 20.585938 -23.5625 22.195312 -22.035156 23.3125 -20.046875 C 24.425781 -18.066406 24.984375 -15.738281 24.984375 -13.0625 C 24.984375 -10.375 24.425781 -8.046875 23.3125 -6.078125 C 22.195312 -4.109375 20.585938 -2.601562 18.484375 -1.5625 C 16.390625 -0.519531 13.914062 0 11.0625 0 L 2.890625 0 L 2.890625 -26.21875 Z M 11.0625 -2.828125 C 14.445312 -2.828125 17.03125 -3.722656 18.8125 -5.515625 C 20.59375 -7.304688 21.484375 -9.820312 21.484375 -13.0625 C 21.484375 -16.320312 20.585938 -18.863281 18.796875 -20.6875 C 17.003906 -22.519531 14.425781 -23.4375 11.0625 -23.4375 L 6.328125 -23.4375 L 6.328125 -2.828125 Z M 11.0625 -2.828125 "/></g></g><g style="fill:#ffffff;fill-opacity:1;"><g transform="translate(140.602692, 27.78334)"><path style="stroke:none" d="M 11.890625 0.34375 C 9.960938 0.34375 8.210938 -0.09375 6.640625 -0.96875 C 5.078125 -1.851562 3.847656 -3.101562 2.953125 -4.71875 C 2.066406 -6.34375 1.625 -8.21875 1.625 -10.34375 C 1.625 -12.445312 2.078125 -14.304688 2.984375 -15.921875 C 3.898438 -17.546875 5.148438 -18.789062 6.734375 -19.65625 C 8.316406 -20.519531 10.085938 -20.953125 12.046875 -20.953125 C 13.992188 -20.953125 15.757812 -20.519531 17.34375 -19.65625 C 18.925781 -18.789062 20.175781 -17.554688 21.09375 -15.953125 C 22.007812 -14.347656 22.46875 -12.476562 22.46875 -10.34375 C 22.46875 -8.21875 21.992188 -6.34375 21.046875 -4.71875 C 20.109375 -3.101562 18.835938 -1.851562 17.234375 -0.96875 C 15.628906 -0.09375 13.847656 0.34375 11.890625 0.34375 Z M 11.890625 -2.671875 C 13.117188 -2.671875 14.269531 -2.957031 15.34375 -3.53125 C 16.425781 -4.113281 17.300781 -4.976562 17.96875 -6.125 C 18.632812 -7.28125 18.96875 -8.6875 18.96875 -10.34375 C 18.96875 -12 18.640625 -13.40625 17.984375 -14.5625 C 17.328125 -15.71875 16.472656 -16.578125 15.421875 -17.140625 C 14.367188 -17.703125 13.226562 -17.984375 12 -17.984375 C 10.75 -17.984375 9.601562 -17.703125 8.5625 -17.140625 C 7.519531 -16.578125 6.679688 -15.71875 6.046875 -14.5625 C 5.421875 -13.40625 5.109375 -12 5.109375 -10.34375 C 5.109375 -8.664062 5.414062 -7.25 6.03125 -6.09375 C 6.644531 -4.9375 7.46875 -4.078125 8.5 -3.515625 C 9.53125 -2.953125 10.660156 -2.671875 11.890625 -2.671875 Z M 11.890625 -2.671875 "/></g></g><g style="fill:#ffffff;fill-opacity:1;"><g transform="translate(164.671886, 27.78334)"><path style="stroke:none" d="M 1.625 -10.34375 C 1.625 -12.476562 2.046875 -14.34375 2.890625 -15.9375 C 3.742188 -17.53125 4.929688 -18.765625 6.453125 -19.640625 C 7.972656 -20.515625 9.707031 -20.953125 11.65625 -20.953125 C 14.195312 -20.953125 16.285156 -20.335938 17.921875 -19.109375 C 19.566406 -17.878906 20.65625 -16.175781 21.1875 -14 L 17.5 -14 C 17.144531 -15.25 16.457031 -16.238281 15.4375 -16.96875 C 14.425781 -17.695312 13.164062 -18.0625 11.65625 -18.0625 C 9.707031 -18.0625 8.128906 -17.390625 6.921875 -16.046875 C 5.710938 -14.703125 5.109375 -12.800781 5.109375 -10.34375 C 5.109375 -7.863281 5.710938 -5.945312 6.921875 -4.59375 C 8.128906 -3.238281 9.707031 -2.5625 11.65625 -2.5625 C 13.164062 -2.5625 14.421875 -2.910156 15.421875 -3.609375 C 16.429688 -4.316406 17.125 -5.320312 17.5 -6.625 L 21.1875 -6.625 C 20.632812 -4.519531 19.53125 -2.832031 17.875 -1.5625 C 16.21875 -0.289062 14.144531 0.34375 11.65625 0.34375 C 9.707031 0.34375 7.972656 -0.09375 6.453125 -0.96875 C 4.929688 -1.851562 3.742188 -3.097656 2.890625 -4.703125 C 2.046875 -6.304688 1.625 -8.1875 1.625 -10.34375 Z M 1.625 -10.34375 "/></g></g><g style="fill:#ffffff;fill-opacity:1;"><g transform="translate(187.500009, 27.78334)"><path style="stroke:none" d="M 10.203125 0.34375 C 8.617188 0.34375 7.195312 0.0703125 5.9375 -0.46875 C 4.6875 -1.007812 3.695312 -1.757812 2.96875 -2.71875 C 2.238281 -3.6875 1.835938 -4.800781 1.765625 -6.0625 L 5.3125 -6.0625 C 5.40625 -5.03125 5.882812 -4.1875 6.75 -3.53125 C 7.613281 -2.882812 8.75 -2.5625 10.15625 -2.5625 C 11.457031 -2.5625 12.484375 -2.847656 13.234375 -3.421875 C 13.992188 -4.003906 14.375 -4.734375 14.375 -5.609375 C 14.375 -6.503906 13.972656 -7.171875 13.171875 -7.609375 C 12.367188 -8.054688 11.125 -8.492188 9.4375 -8.921875 C 7.914062 -9.316406 6.671875 -9.722656 5.703125 -10.140625 C 4.734375 -10.554688 3.90625 -11.171875 3.21875 -11.984375 C 2.53125 -12.796875 2.1875 -13.867188 2.1875 -15.203125 C 2.1875 -16.253906 2.5 -17.21875 3.125 -18.09375 C 3.75 -18.976562 4.640625 -19.675781 5.796875 -20.1875 C 6.953125 -20.695312 8.269531 -20.953125 9.75 -20.953125 C 12.03125 -20.953125 13.867188 -20.375 15.265625 -19.21875 C 16.671875 -18.070312 17.425781 -16.492188 17.53125 -14.484375 L 14.109375 -14.484375 C 14.035156 -15.566406 13.601562 -16.429688 12.8125 -17.078125 C 12.019531 -17.734375 10.957031 -18.0625 9.625 -18.0625 C 8.394531 -18.0625 7.414062 -17.796875 6.6875 -17.265625 C 5.96875 -16.742188 5.609375 -16.054688 5.609375 -15.203125 C 5.609375 -14.523438 5.828125 -13.96875 6.265625 -13.53125 C 6.703125 -13.09375 7.253906 -12.738281 7.921875 -12.46875 C 8.585938 -12.207031 9.507812 -11.914062 10.6875 -11.59375 C 12.164062 -11.1875 13.367188 -10.785156 14.296875 -10.390625 C 15.222656 -10.003906 16.019531 -9.421875 16.6875 -8.640625 C 17.351562 -7.867188 17.695312 -6.859375 17.71875 -5.609375 C 17.71875 -4.472656 17.40625 -3.453125 16.78125 -2.546875 C 16.15625 -1.648438 15.269531 -0.941406 14.125 -0.421875 C 12.988281 0.0859375 11.679688 0.34375 10.203125 0.34375 Z M 10.203125 0.34375 "/></g></g></g></svg>