<svg xmlns="http://www.w3.org/2000/svg" xmlns:xlink="http://www.w3.org/1999/xlink" width="280" zoomAndPan="magnify" viewBox="0 0 210 36.000001" height="48" preserveAspectRatio="xMidYMid meet" version="1.2"><defs/><g id="2e0d4b9242"><g style="fill:#1e90ff;fill-opacity:1;"><g transform="translate(4.014493, 26.077299)"><path style="stroke:none" d="M 6.40625 -12.796875 L 10.671875 -17.0625 L 6.40625 -17.0625 Z M 27.734375 8.53125 L 10.671875 -8.53125 L 6.40625 -4.265625 L 6.40625 0 L 0 0 L 0 -23.46875 L 25.59375 -23.46875 L 14.9375 -12.796875 L 27.734375 0 Z M 27.734375 8.53125 "/></g><g transform="translate(29.615541, 26.077299)"><path style="stroke:none" d="M 0 0 L 0 -10.671875 L 6.40625 -17.0625 L 6.40625 -8.53125 L 14.9375 -17.0625 L 0 -17.0625 L 0 -23.46875 L 29.859375 -23.46875 L 12.796875 -6.40625 L 23.46875 -6.40625 L 23.46875 0 Z M 0 0 "/></g><g transform="translate(55.21659, 26.077299)"><path style="stroke:none" d="M 0 6.40625 L 0 -23.46875 L 6.40625 -23.46875 L 6.40625 -8.53125 L 23.46875 -25.59375 L 23.46875 -17.0625 Z M 0 6.40625 "/></g><g transform="translate(80.817639, 26.077299)"><path style="stroke:none" d="M 17.0625 -6.40625 L 17.0625 -17.0625 L 6.40625 -17.0625 L 6.40625 -6.40625 Z M 0 0 L 0 -23.46875 L 23.46875 -23.46875 L 23.46875 0 Z M 0 0 "/></g></g><g style="fill:#ffffff;fill-opacity:1;"><g transform="translate(117.805699, 25.361627)"><path style="stroke:none" d="M 9.984375 -23.671875 C 12.566406 -23.671875 14.800781 -23.1875 16.6875 -22.21875 C 18.582031 -21.257812 20.035156 -19.882812 21.046875 -18.09375 C 22.054688 -16.3125 22.5625 -14.207031 22.5625 -11.78125 C 22.5625 -9.363281 22.054688 -7.265625 21.046875 -5.484375 C 20.035156 -3.703125 18.582031 -2.34375 16.6875 -1.40625 C 14.800781 -0.46875 12.566406 0 9.984375 0 L 2.609375 0 L 2.609375 -23.671875 Z M 9.984375 -2.546875 C 13.046875 -2.546875 15.378906 -3.351562 16.984375 -4.96875 C 18.585938 -6.59375 19.390625 -8.863281 19.390625 -11.78125 C 19.390625 -14.726562 18.578125 -17.023438 16.953125 -18.671875 C 15.335938 -20.328125 13.015625 -21.15625 9.984375 -21.15625 L 5.703125 -21.15625 L 5.703125 -2.546875 Z M 9.984375 -2.546875 "/></g></g><g style="fill:#ffffff;fill-opacity:1;"><g transform="translate(141.813967, 25.361627)"><path style="stroke:none" d="M 10.734375 0.3125 C 8.992188 0.3125 7.414062 -0.0820312 6 -0.875 C 4.582031 -1.675781 3.46875 -2.804688 2.65625 -4.265625 C 1.851562 -5.722656 1.453125 -7.414062 1.453125 -9.34375 C 1.453125 -11.238281 1.863281 -12.914062 2.6875 -14.375 C 3.519531 -15.84375 4.648438 -16.96875 6.078125 -17.75 C 7.503906 -18.53125 9.101562 -18.921875 10.875 -18.921875 C 12.632812 -18.921875 14.226562 -18.53125 15.65625 -17.75 C 17.082031 -16.96875 18.207031 -15.851562 19.03125 -14.40625 C 19.863281 -12.957031 20.28125 -11.269531 20.28125 -9.34375 C 20.28125 -7.414062 19.851562 -5.722656 19 -4.265625 C 18.15625 -2.804688 17.007812 -1.675781 15.5625 -0.875 C 14.113281 -0.0820312 12.503906 0.3125 10.734375 0.3125 Z M 10.734375 -2.40625 C 11.847656 -2.40625 12.890625 -2.664062 13.859375 -3.1875 C 14.828125 -3.707031 15.613281 -4.488281 16.21875 -5.53125 C 16.820312 -6.570312 17.125 -7.84375 17.125 -9.34375 C 17.125 -10.832031 16.828125 -12.097656 16.234375 -13.140625 C 15.648438 -14.179688 14.878906 -14.957031 13.921875 -15.46875 C 12.972656 -15.976562 11.945312 -16.234375 10.84375 -16.234375 C 9.707031 -16.234375 8.664062 -15.976562 7.71875 -15.46875 C 6.78125 -14.957031 6.03125 -14.179688 5.46875 -13.140625 C 4.90625 -12.097656 4.625 -10.832031 4.625 -9.34375 C 4.625 -7.820312 4.898438 -6.539062 5.453125 -5.5 C 6.003906 -4.457031 6.742188 -3.679688 7.671875 -3.171875 C 8.597656 -2.660156 9.617188 -2.40625 10.734375 -2.40625 Z M 10.734375 -2.40625 "/></g></g><g style="fill:#ffffff;fill-opacity:1;"><g transform="translate(163.54705, 25.361627)"><path style="stroke:none" d="M 1.453125 -9.34375 C 1.453125 -11.269531 1.835938 -12.953125 2.609375 -14.390625 C 3.378906 -15.828125 4.445312 -16.941406 5.8125 -17.734375 C 7.1875 -18.523438 8.757812 -18.921875 10.53125 -18.921875 C 12.820312 -18.921875 14.707031 -18.363281 16.1875 -17.25 C 17.664062 -16.144531 18.644531 -14.609375 19.125 -12.640625 L 15.796875 -12.640625 C 15.472656 -13.765625 14.851562 -14.65625 13.9375 -15.3125 C 13.019531 -15.976562 11.882812 -16.3125 10.53125 -16.3125 C 8.757812 -16.3125 7.332031 -15.703125 6.25 -14.484375 C 5.164062 -13.273438 4.625 -11.5625 4.625 -9.34375 C 4.625 -7.101562 5.164062 -5.367188 6.25 -4.140625 C 7.332031 -2.921875 8.757812 -2.3125 10.53125 -2.3125 C 11.882812 -2.3125 13.015625 -2.628906 13.921875 -3.265625 C 14.828125 -3.898438 15.453125 -4.804688 15.796875 -5.984375 L 19.125 -5.984375 C 18.625 -4.078125 17.625 -2.550781 16.125 -1.40625 C 14.632812 -0.257812 12.769531 0.3125 10.53125 0.3125 C 8.757812 0.3125 7.1875 -0.0820312 5.8125 -0.875 C 4.445312 -1.675781 3.378906 -2.800781 2.609375 -4.25 C 1.835938 -5.695312 1.453125 -7.394531 1.453125 -9.34375 Z M 1.453125 -9.34375 "/></g></g><g style="fill:#ffffff;fill-opacity:1;"><g transform="translate(184.159517, 25.361627)"><path style="stroke:none" d="M 9.203125 0.3125 C 7.773438 0.3125 6.492188 0.0664062 5.359375 -0.421875 C 4.234375 -0.910156 3.34375 -1.585938 2.6875 -2.453125 C 2.03125 -3.328125 1.664062 -4.332031 1.59375 -5.46875 L 4.796875 -5.46875 C 4.878906 -4.539062 5.3125 -3.78125 6.09375 -3.1875 C 6.875 -2.601562 7.898438 -2.3125 9.171875 -2.3125 C 10.347656 -2.3125 11.273438 -2.570312 11.953125 -3.09375 C 12.628906 -3.613281 12.96875 -4.269531 12.96875 -5.0625 C 12.96875 -5.875 12.601562 -6.476562 11.875 -6.875 C 11.15625 -7.269531 10.039062 -7.660156 8.53125 -8.046875 C 7.144531 -8.410156 6.015625 -8.78125 5.140625 -9.15625 C 4.273438 -9.53125 3.53125 -10.082031 2.90625 -10.8125 C 2.28125 -11.550781 1.96875 -12.519531 1.96875 -13.71875 C 1.96875 -14.675781 2.25 -15.550781 2.8125 -16.34375 C 3.382812 -17.132812 4.191406 -17.757812 5.234375 -18.21875 C 6.273438 -18.6875 7.460938 -18.921875 8.796875 -18.921875 C 10.859375 -18.921875 12.519531 -18.398438 13.78125 -17.359375 C 15.050781 -16.316406 15.734375 -14.890625 15.828125 -13.078125 L 12.734375 -13.078125 C 12.671875 -14.046875 12.28125 -14.828125 11.5625 -15.421875 C 10.851562 -16.015625 9.898438 -16.3125 8.703125 -16.3125 C 7.585938 -16.3125 6.703125 -16.070312 6.046875 -15.59375 C 5.390625 -15.113281 5.0625 -14.488281 5.0625 -13.71875 C 5.0625 -13.113281 5.257812 -12.613281 5.65625 -12.21875 C 6.050781 -11.820312 6.546875 -11.503906 7.140625 -11.265625 C 7.742188 -11.023438 8.578125 -10.757812 9.640625 -10.46875 C 10.984375 -10.101562 12.070312 -9.742188 12.90625 -9.390625 C 13.75 -9.035156 14.46875 -8.507812 15.0625 -7.8125 C 15.664062 -7.113281 15.976562 -6.195312 16 -5.0625 C 16 -4.039062 15.710938 -3.125 15.140625 -2.3125 C 14.578125 -1.5 13.78125 -0.859375 12.75 -0.390625 C 11.71875 0.078125 10.535156 0.3125 9.203125 0.3125 Z M 9.203125 0.3125 "/></g></g></g></svg>