<svg xmlns="http://www.w3.org/2000/svg" xmlns:xlink="http://www.w3.org/1999/xlink" width="280" zoomAndPan="magnify" viewBox="0 0 210 36.000001" height="48" preserveAspectRatio="xMidYMid meet" version="1.2"><defs/><g id="be52ab30d5"><g style="fill:#1e90ff;fill-opacity:1;"><g transform="translate(4.014493, 26.077299)"><path style="stroke:none" d="M 6.40625 -12.796875 L 10.671875 -17.0625 L 6.40625 -17.0625 Z M 27.734375 8.53125 L 10.671875 -8.53125 L 6.40625 -4.265625 L 6.40625 0 L 0 0 L 0 -23.46875 L 25.59375 -23.46875 L 14.9375 -12.796875 L 27.734375 0 Z M 27.734375 8.53125 "/></g><g transform="translate(29.615541, 26.077299)"><path style="stroke:none" d="M 0 0 L 0 -10.671875 L 6.40625 -17.0625 L 6.40625 -8.53125 L 14.9375 -17.0625 L 0 -17.0625 L 0 -23.46875 L 29.859375 -23.46875 L 12.796875 -6.40625 L 23.46875 -6.40625 L 23.46875 0 Z M 0 0 "/></g><g transform="translate(55.21659, 26.077299)"><path style="stroke:none" d="M 0 6.40625 L 0 -23.46875 L 6.40625 -23.46875 L 6.40625 -8.53125 L 23.46875 -25.59375 L 23.46875 -17.0625 Z M 0 6.40625 "/></g><g transform="translate(80.817639, 26.077299)"><path style="stroke:none" d="M 17.0625 -6.40625 L 17.0625 -17.0625 L 6.40625 -17.0625 L 6.40625 -6.40625 Z M 0 0 L 0 -23.46875 L 23.46875 -23.46875 L 23.46875 0 Z M 0 0 "/></g></g><g style="fill:#000000;fill-opacity:1;"><g transform="translate(124.028813, 23.741699)"><path style="stroke:none" d="M 8.453125 -20.03125 C 10.628906 -20.03125 12.515625 -19.617188 14.109375 -18.796875 C 15.710938 -17.984375 16.941406 -16.820312 17.796875 -15.3125 C 18.648438 -13.800781 19.078125 -12.019531 19.078125 -9.96875 C 19.078125 -7.914062 18.648438 -6.140625 17.796875 -4.640625 C 16.941406 -3.140625 15.710938 -1.988281 14.109375 -1.1875 C 12.515625 -0.394531 10.628906 0 8.453125 0 L 2.21875 0 L 2.21875 -20.03125 Z M 8.453125 -2.15625 C 11.035156 -2.15625 13.003906 -2.835938 14.359375 -4.203125 C 15.722656 -5.578125 16.40625 -7.5 16.40625 -9.96875 C 16.40625 -12.457031 15.71875 -14.398438 14.34375 -15.796875 C 12.976562 -17.203125 11.015625 -17.90625 8.453125 -17.90625 L 4.828125 -17.90625 L 4.828125 -2.15625 Z M 8.453125 -2.15625 "/></g></g><g style="fill:#000000;fill-opacity:1;"><g transform="translate(144.335092, 23.741699)"><path style="stroke:none" d="M 9.078125 0.265625 C 7.609375 0.265625 6.273438 -0.0664062 5.078125 -0.734375 C 3.878906 -1.410156 2.9375 -2.363281 2.25 -3.59375 C 1.570312 -4.832031 1.234375 -6.269531 1.234375 -7.90625 C 1.234375 -9.507812 1.582031 -10.925781 2.28125 -12.15625 C 2.976562 -13.394531 3.929688 -14.34375 5.140625 -15 C 6.347656 -15.664062 7.695312 -16 9.1875 -16 C 10.6875 -16 12.039062 -15.664062 13.25 -15 C 14.457031 -14.34375 15.410156 -13.398438 16.109375 -12.171875 C 16.804688 -10.953125 17.15625 -9.53125 17.15625 -7.90625 C 17.15625 -6.269531 16.796875 -4.832031 16.078125 -3.59375 C 15.359375 -2.363281 14.382812 -1.410156 13.15625 -0.734375 C 11.9375 -0.0664062 10.578125 0.265625 9.078125 0.265625 Z M 9.078125 -2.046875 C 10.015625 -2.046875 10.894531 -2.265625 11.71875 -2.703125 C 12.539062 -3.140625 13.207031 -3.796875 13.71875 -4.671875 C 14.226562 -5.554688 14.484375 -6.632812 14.484375 -7.90625 C 14.484375 -9.164062 14.234375 -10.234375 13.734375 -11.109375 C 13.234375 -11.992188 12.582031 -12.648438 11.78125 -13.078125 C 10.976562 -13.515625 10.109375 -13.734375 9.171875 -13.734375 C 8.210938 -13.734375 7.332031 -13.515625 6.53125 -13.078125 C 5.738281 -12.648438 5.101562 -11.992188 4.625 -11.109375 C 4.144531 -10.234375 3.90625 -9.164062 3.90625 -7.90625 C 3.90625 -6.625 4.140625 -5.539062 4.609375 -4.65625 C 5.078125 -3.769531 5.703125 -3.113281 6.484375 -2.6875 C 7.273438 -2.257812 8.140625 -2.046875 9.078125 -2.046875 Z M 9.078125 -2.046875 "/></g></g><g style="fill:#000000;fill-opacity:1;"><g transform="translate(162.717011, 23.741699)"><path style="stroke:none" d="M 1.234375 -7.90625 C 1.234375 -9.53125 1.554688 -10.953125 2.203125 -12.171875 C 2.859375 -13.390625 3.765625 -14.332031 4.921875 -15 C 6.085938 -15.664062 7.414062 -16 8.90625 -16 C 10.84375 -16 12.4375 -15.53125 13.6875 -14.59375 C 14.945312 -13.65625 15.773438 -12.351562 16.171875 -10.6875 L 13.359375 -10.6875 C 13.085938 -11.644531 12.5625 -12.398438 11.78125 -12.953125 C 11.007812 -13.515625 10.050781 -13.796875 8.90625 -13.796875 C 7.414062 -13.796875 6.207031 -13.28125 5.28125 -12.25 C 4.363281 -11.226562 3.90625 -9.78125 3.90625 -7.90625 C 3.90625 -6.007812 4.363281 -4.539062 5.28125 -3.5 C 6.207031 -2.46875 7.414062 -1.953125 8.90625 -1.953125 C 10.050781 -1.953125 11.007812 -2.21875 11.78125 -2.75 C 12.550781 -3.289062 13.078125 -4.0625 13.359375 -5.0625 L 16.171875 -5.0625 C 15.753906 -3.445312 14.910156 -2.15625 13.640625 -1.1875 C 12.378906 -0.21875 10.800781 0.265625 8.90625 0.265625 C 7.414062 0.265625 6.085938 -0.0664062 4.921875 -0.734375 C 3.765625 -1.410156 2.859375 -2.363281 2.203125 -3.59375 C 1.554688 -4.820312 1.234375 -6.257812 1.234375 -7.90625 Z M 1.234375 -7.90625 "/></g></g><g style="fill:#000000;fill-opacity:1;"><g transform="translate(180.151109, 23.741699)"><path style="stroke:none" d="M 7.78125 0.265625 C 6.582031 0.265625 5.503906 0.0546875 4.546875 -0.359375 C 3.585938 -0.773438 2.828125 -1.347656 2.265625 -2.078125 C 1.710938 -2.816406 1.40625 -3.664062 1.34375 -4.625 L 4.046875 -4.625 C 4.128906 -3.84375 4.5 -3.203125 5.15625 -2.703125 C 5.820312 -2.203125 6.691406 -1.953125 7.765625 -1.953125 C 8.753906 -1.953125 9.535156 -2.171875 10.109375 -2.609375 C 10.679688 -3.054688 10.96875 -3.613281 10.96875 -4.28125 C 10.96875 -4.96875 10.660156 -5.476562 10.046875 -5.8125 C 9.441406 -6.15625 8.5 -6.488281 7.21875 -6.8125 C 6.039062 -7.113281 5.082031 -7.421875 4.34375 -7.734375 C 3.613281 -8.054688 2.984375 -8.523438 2.453125 -9.140625 C 1.929688 -9.765625 1.671875 -10.585938 1.671875 -11.609375 C 1.671875 -12.410156 1.910156 -13.144531 2.390625 -13.8125 C 2.867188 -14.488281 3.546875 -15.019531 4.421875 -15.40625 C 5.304688 -15.800781 6.3125 -16 7.4375 -16 C 9.1875 -16 10.597656 -15.554688 11.671875 -14.671875 C 12.742188 -13.796875 13.316406 -12.59375 13.390625 -11.0625 L 10.78125 -11.0625 C 10.71875 -11.882812 10.382812 -12.546875 9.78125 -13.046875 C 9.175781 -13.546875 8.367188 -13.796875 7.359375 -13.796875 C 6.421875 -13.796875 5.671875 -13.59375 5.109375 -13.1875 C 4.554688 -12.78125 4.28125 -12.253906 4.28125 -11.609375 C 4.28125 -11.085938 4.445312 -10.660156 4.78125 -10.328125 C 5.113281 -9.992188 5.535156 -9.722656 6.046875 -9.515625 C 6.554688 -9.316406 7.257812 -9.09375 8.15625 -8.84375 C 9.289062 -8.539062 10.210938 -8.238281 10.921875 -7.9375 C 11.628906 -7.644531 12.234375 -7.203125 12.734375 -6.609375 C 13.242188 -6.015625 13.507812 -5.238281 13.53125 -4.28125 C 13.53125 -3.414062 13.289062 -2.640625 12.8125 -1.953125 C 12.332031 -1.265625 11.65625 -0.722656 10.78125 -0.328125 C 9.914062 0.0664062 8.914062 0.265625 7.78125 0.265625 Z M 7.78125 0.265625 "/></g></g></g></svg>